<svg width="140" height="140" viewBox="0 0 140 140" fill="none" xmlns="http://www.w3.org/2000/svg">
<rect x="2" y="2" width="136" height="136" rx="34" fill="white"/>
<rect x="2" y="2" width="136" height="136" rx="34" stroke="#099C4E" stroke-width="4"/>
<g clip-path="url(#clip0_151_342)">
<path d="M54.923 35.1765C54.923 33.9576 53.9754 33 52.7692 33C51.563 33 50.6154 33.9576 50.6154 35.1765C50.6154 47.0165 56.2154 57.4635 64.8307 64.2541C66.0369 63.3835 67.4154 62.6 68.7077 61.9035C60.3507 55.9835 54.8369 46.2329 54.8369 35.1765H54.923Z" fill="#00A24F"/>
<path d="M87.2308 72.1765C88.437 72.1765 89.3847 71.2188 89.3847 70C89.3847 68.7812 88.437 67.8235 87.2308 67.8235C84.5601 67.8235 81.9754 67.3882 79.5631 66.7788C77.3231 67.3882 75.2554 68.2588 73.1877 69.3035C77.4954 71.1317 82.2339 72.1765 87.2308 72.1765Z" fill="#00A24F"/>
<path d="M95.8461 37.3529H52.7692C51.563 37.3529 50.6154 36.3953 50.6154 35.1765C50.6154 33.9576 51.563 33 52.7692 33H95.8461C97.0523 33 98 33.9576 98 35.1765C98 36.3953 97.0523 37.3529 95.8461 37.3529Z" fill="#00A24F"/>
<path d="M95.8462 102.647H46.3077V35.1765C46.3077 33.9576 45.36 33 44.1538 33C42.9477 33 42 33.9576 42 35.1765V104.824C42 106.042 42.9477 107 44.1538 107H95.8462C97.0523 107 98 106.042 98 104.824C98 103.605 97.0523 102.647 95.8462 102.647Z" fill="#00A24F"/>
<path d="M95.8462 54.7647H78.6154C77.4092 54.7647 76.4615 53.8071 76.4615 52.5882C76.4615 51.3694 77.4092 50.4118 78.6154 50.4118H93.6923V35.1765C93.6923 33.9576 94.64 33 95.8462 33C97.0523 33 98 33.9576 98 35.1765V52.5882C98 53.8071 97.0523 54.7647 95.8462 54.7647Z" fill="#00A24F"/>
<path d="M95.8462 85.2354H70C68.7939 85.2354 67.8462 86.193 67.8462 87.4118C67.8462 88.6306 68.7939 89.5883 70 89.5883H93.6923V104.824C93.6923 106.042 94.64 107 95.8462 107C97.0523 107 98 106.042 98 104.824V87.4118C98 86.193 97.0523 85.2354 95.8462 85.2354Z" fill="#00A24F"/>
<path d="M85.0769 65.9083V70.0001C85.0769 71.2189 86.0246 72.1766 87.2308 72.1766C88.4369 72.1766 89.3846 71.2189 89.3846 70.0001V64.9507C88.7815 65.2989 88.0061 65.6472 87.2308 65.6472C86.4554 65.6472 85.7661 65.8213 85.0769 65.9083Z" fill="#00A24F"/>
<path d="M87.2308 59.1177C86.0246 59.1177 85.0769 60.0753 85.0769 61.2941V65.9083C85.7661 65.9083 86.4554 65.6471 87.2308 65.6471C88.0061 65.6471 88.7815 65.3859 89.3846 64.9506V61.2941C89.3846 60.0753 88.4369 59.1177 87.2308 59.1177Z" fill="#00A24F"/>
<path d="M87.2307 59.1177C67.0707 59.1177 50.6154 75.7459 50.6154 96.1177C50.6154 97.3365 51.563 98.2941 52.7692 98.2941C53.9754 98.2941 54.923 97.3365 54.923 96.1177C54.923 78.0965 69.3969 63.4706 87.2307 63.4706C88.4369 63.4706 89.3846 62.513 89.3846 61.2941C89.3846 60.0753 88.4369 59.1177 87.2307 59.1177Z" fill="#00A24F"/>
</g>
<defs>
<clipPath id="clip0_151_342">
<rect width="56" height="74" fill="white" transform="translate(42 33)"/>
</clipPath>
</defs>
</svg>
