<?xml version="1.0" standalone="no"?>
<!DOCTYPE svg PUBLIC "-//W3C//DTD SVG 20010904//EN"
 "http://www.w3.org/TR/2001/REC-SVG-20010904/DTD/svg10.dtd">
<svg version="1.0" xmlns="http://www.w3.org/2000/svg"
 width="700.000000pt" height="700.000000pt" viewBox="0 0 700.000000 700.000000"
 preserveAspectRatio="xMidYMid meet">
<metadata>
Created by potrace 1.14, written by Peter Selinger 2001-2017
</metadata>
<g transform="translate(0.000000,700.000000) scale(0.100000,-0.100000)"
fill="#000000" stroke="none">
<path d="M1645 6994 c-343 -43 -582 -125 -825 -284 -379 -249 -651 -625 -761
-1053 -56 -216 -52 -91 -56 -2082 -3 -1294 -1 -1873 7 -1950 86 -855 746
-1520 1602 -1614 134 -15 3641 -15 3776 0 850 92 1509 751 1601 1601 15 134
15 3642 0 3776 -80 742 -605 1359 -1315 1548 -231 61 -86 57 -2129 59 -1028 1
-1883 1 -1900 -1z m3733 -204 c746 -80 1332 -672 1412 -1427 7 -66 10 -705 8
-1928 l-3 -1830 -23 -108 c-94 -441 -331 -795 -694 -1034 -213 -140 -442 -223
-703 -253 -123 -14 -3627 -14 -3750 0 -482 56 -897 310 -1162 712 -140 213
-223 442 -253 703 -14 123 -14 3627 0 3750 86 747 664 1328 1407 1414 106 13
3645 13 3761 1z"/>
<path d="M2165 5341 c-11 -5 -29 -19 -40 -31 -20 -22 -20 -36 -20 -1811 l0
-1789 28 -27 27 -28 1336 -3 1336 -2 34 34 34 34 0 466 c0 512 0 510 -60 541
-43 22 -1332 23 -1386 0 -74 -31 -81 -143 -11 -185 31 -19 55 -20 635 -20
l602 0 0 -325 0 -325 -1180 0 -1180 0 -2 1703 c-3 1607 -4 1703 -21 1728 -29
43 -84 59 -132 40z"/>
<path d="M2564 5316 c-31 -31 -34 -39 -34 -94 0 -165 43 -413 101 -581 62
-178 185 -401 302 -546 52 -64 198 -215 259 -266 l47 -40 96 58 97 58 -38 30
c-224 178 -374 361 -489 600 -81 168 -138 366 -152 528 l-6 67 967 0 966 0 0
-325 0 -325 -387 0 c-367 0 -390 -1 -420 -20 -46 -28 -62 -84 -37 -135 31 -65
30 -65 529 -65 379 0 450 2 475 15 60 31 60 29 60 541 l0 466 -34 34 -34 34
-1117 0 -1117 0 -34 -34z"/>
<path d="M4237 4039 c-643 -46 -1215 -431 -1507 -1014 -112 -226 -168 -425
-191 -680 -14 -151 -9 -193 28 -229 45 -46 133 -31 164 27 7 12 16 81 20 154
39 627 442 1189 1014 1412 156 61 360 111 458 111 l27 0 0 -103 0 -104 -62 9
c-35 4 -96 15 -136 24 -73 16 -74 16 -154 -11 -116 -39 -233 -94 -222 -104 15
-15 213 -78 314 -99 118 -26 343 -48 392 -38 23 4 46 18 62 37 l26 31 0 251
c0 232 -2 255 -20 284 -13 21 -31 35 -57 42 -21 6 -40 10 -43 9 -3 0 -54 -4
-113 -9z"/>
</g>
</svg>
